# xmcd
#
# Track frame offsets:
#	150
#	14581
#	27974
#	40611
#	56128
#	69391
#	83967
#	92375
#	104544
#	118784
#	130860
#	145001
#	164032
#	179556
#	193518
#	207332
#
# Disc length: 2900 seconds
#
# Revision: 0
# Processed by: cddbd v1.5.2PL0 Copyright (c) Steve Scherf et al.
# Submitted via: EasyCDDAExtractor 16.0.6.1
#
DISCID=e30b5210
DTITLE=Πουλόπουλος Γιάννης - Ενενήντα έξι μεγ. επιτυχίες-Γ. Πουλόπουλος 3
DYEAR=2010
DGENRE=Ποικίλη
TTITLE0=Πουλόπουλος Γιάννης - Μέθυσ' απόψε το κορίτσι μου [Μ. Πλέσσας-Λ. Παπαδ
TTITLE0=όπουλος]
TTITLE1=Πουλόπουλος Γιάννης - Νά 'χα τη δύναμη [Γιάννης Γλέζος-Κώστας Κινδύνης
TTITLE1=]
TTITLE2=Πουλόπουλος Γιάννης - Αυτοί που μένουν κι αυτοί που φεύγουν[Γ.Ζαμπέτας
TTITLE2=Αλ.Καγιάντας]
TTITLE3=Πουλόπουλος Γιάννης - Η Μαρίνα η Σαλονικιά [Γ. Ζαμπέτας]
TTITLE4=Πουλόπουλος Γιάννης - Μεθυσμένο το φεγγάρι [Μ. Πλέσσας-Λ. Παπαδόπουλος
TTITLE4=]
TTITLE5=Πουλόπουλος Γιάννης-χορωδία - Ζούσα μοναχός χωρίς αγάπη [Δημ. Γκόγκος]
TTITLE6=Πουλόπουλος Γιάννης - Ο τρελλός [Μ. Πλέσσας-Λ. Παπαδόπουλος]
TTITLE7=Πουλόπουλος Γιάννης - Δώδεκα η ώρα θά 'ρθω βρε Μαριώ [Β. Τσιτσάνης]
TTITLE8=Πουλόπουλος Γιάννης - Φραγκοσυριανή [Μ. Βαμβακάρης]
TTITLE9=Πουλόπουλος Γιάννης - Όταν μιλάς για χωρισμό [Μ. Πλέσσας-Λουκία Πλέσσα
TTITLE9=]
TTITLE10=Πουλόπουλος Γιάννης - Τής είπα πόσα [Αντ. Στεφανίδης-Β. Παπαδόπουλος]
TTITLE11=Πουλόπουλος Γιάννης - Μπήκα στον κήπο σου πρωΐ [Γ. Πουλόπουλος]
TTITLE12=Πουλόπουλος Γιάννης - Τόσα χρόνια, τόσα σώματα [Γ. Δημητράς-Φωτ. Δούρ
TTITLE12=ου]
TTITLE13=Πουλόπουλος Γιάννης - Η Καλαμαριά [Στ. Κουγιουμτζής-Θαν. Παπαδόπουλος
TTITLE13=]
TTITLE14=Πουλόπουλος Γιάννης-Κλάδη Ελένη - Πολύ αργά [Γ. Κατσαρός-Πυθαγόρας]
TTITLE15=Πουλόπουλος Γιάννης - Είχαμε πει [Γ. Ζαμπέτας-Αλ. Καγιάντας]
EXTD=
EXTT0=
EXTT1=
EXTT2=
EXTT3=
EXTT4=
EXTT5=
EXTT6=
EXTT7=
EXTT8=
EXTT9=
EXTT10=
EXTT11=
EXTT12=
EXTT13=
EXTT14=
EXTT15=
PLAYORDER=
